{
  "title": "I Frankenstein 2014 DVDRiP DiVX MP3-ART3MiS",
  "uid": 9678682,
  "size": 1098024330,
  "categoryP": "video",
  "categoryS": "movies",
  "magnet": "?xt=urn:btih:d36360b830eedaa97a63bab8c47a4be272da4bd7&amp;dn=I+Frankenstein+2014+DVDRiP+DiVX+MP3-ART3MiS&amp;tr=udp%3A%2F%2Ftracker.openbittorrent.com%3A80&amp;tr=udp%3A%2F%2Fopen.demonii.com%3A1337&amp;tr=udp%3A%2F%2Ftracker.coppersurfer.tk%3A6969&amp;tr=udp%3A%2F%2Fexodus.desync.com%3A6969",
  "seeders": 132,
  "leechers": 4,
  "uploader": "HeroMaster",
  "files": -1,
  "time": 1393617396,
  "description": "::::::::: ART3MiS PRESENTS :::::::::\n\n\n:::: I Frankenstein 2014 DVDRiP DiVX MP3-ART3MiS ::::\n\n\n::Release Information::\n\n\nRelease Name: I Frankenstein 2014 DVDRiP DiVX MP3-ART3MiS\nFormat: AVI\nSize: 1.02 GB\nVideo: DivX | 720 x 304 | 1 496 Kbps | 23.976 FPS | 2.35:1\nAudio: English | 128 Kbps | 2 ch | MP3\nRuntime: 1h 29mn 15sec\nSubtitles: None\nSource: OWN\n\n\n::IMDB Information::\n\n\nYear: 2014\nName: I Frankenstein\nGenre:  Action | Fantasy | Sci-Fi\nIMDB Link: http://www.imdb.com/title/tt1418377/\nIMDB Rating: 5.5/10 from 9,704 users \nDirector: Stuart Beattie\nWriters: Stuart Beattie (screenplay), Kevin Grevioux (screen story)\nCast: Aaron Eckhart, Bill Nighy, Miranda Otto\nPlot: Frankenstein's creature finds himself caught in an all-out, \ncenturies old war between two immortal clans.\n\n\n::More Information::\n\n\nGeneral\nComplete name            : I, Frankenstein 2014 DVDRiP.DiVX.MP3-ART3MiS.avi\nFormat                                   : AVI\nFormat/Info                              : Audio Video Interleave\nFormat profile                           : OpenDML\nFile size                                : 1.02 GiB\nDuration                                 : 1h 29mn\nOverall bit rate                         : 1 640 Kbps\nWriting application                      : Lavf51.12.1\n\nVideo\nID                                       : 0\nFormat                                   : MPEG-4 Visual\nFormat profile                           : Simple@L1\nFormat settings, BVOP                    : No\nFormat settings, QPel                    : No\nFormat settings, GMC                     : No warppoints\nFormat settings, Matrix                  : Default (H.263)\nCodec ID                                 : DX50\nCodec ID/Hint                            : DivX 5\nDuration                                 : 1h 29mn\nBit rate                                 : 1 496 Kbps\nWidth                                    : 720 pixels\nHeight                                   : 304 pixels\nDisplay aspect ratio                     : 2.35:1\nFrame rate                               : 25.000 fps\nColor space                              : YUV\nChroma subsampling                       : 4:2:0\nBit depth                                : 8 bits\nScan type                                : Progressive\nCompression mode                         : Lossy\nBits/(Pixel*Frame)                       : 0.273\nStream size                              : 955 MiB (91%)\nWriting library                          : Lavc51.40.4\n\nAudio\nID                                       : 1\nFormat                                   : MPEG Audio\nFormat version                           : Version 1\nFormat profile                           : Layer 3\nMode                                     : Joint stereo\nCodec ID                                 : 55\nCodec ID/Hint                            : MP3\nDuration                                 : 1h 29mn\nBit rate mode                            : Constant\nBit rate                                 : 128 Kbps\nChannel(s)                               : 2 channels\nSampling rate                            : 44.1 KHz\nCompression mode                         : Lossy\nStream size                              : 81.7 MiB (8%)\nAlignment                                : Aligned on interleaves\nInterleave, duration                     : 26 ms (0.65 video frame)\nInterleave, preload duration             : 26 ms\nWriting library                          : LAME3.97\n\n\n::Greetz and Respect::\n\n\nALL CREDIT Goes to opArtemis for Encoding and Distribution.\n\n\n::Poster::\n\n &lt;a href=&quot;\nhttp://i.imgur.com/2zUxhqr.jpg&quot; rel=&quot;nofollow&quot; target=&quot;_NEW&quot;&gt;\nhttp://i.imgur.com/2zUxhqr.jpg&lt;/a&gt;\n\n\n::Screenshots::\n\n &lt;a href=&quot;\nhttp://i.imgur.com/Tns6LmK.jpg&quot; rel=&quot;nofollow&quot; target=&quot;_NEW&quot;&gt;\nhttp://i.imgur.com/Tns6LmK.jpg&lt;/a&gt;\n\n\nSEED AND ENJOY!",
  "parsed": {
    "xt": "urn:btih:d36360b830eedaa97a63bab8c47a4be272da4bd7",
    "dn": "I Frankenstein 2014 DVDRiP DiVX MP3-ART3MiS",
    "tr": [
      "udp://exodus.desync.com:6969",
      "udp://open.demonii.com:1337",
      "udp://tracker.coppersurfer.tk:6969",
      "udp://tracker.openbittorrent.com:80"
    ],
    "infoHash": "d36360b830eedaa97a63bab8c47a4be272da4bd7",
    "infoHashBuffer": {
      "type": "Buffer",
      "data": [
        211,
        99,
        96,
        184,
        48,
        238,
        218,
        169,
        122,
        99,
        186,
        184,
        196,
        122,
        75,
        226,
        114,
        218,
        75,
        215
      ]
    },
    "name": "I Frankenstein 2014 DVDRiP DiVX MP3-ART3MiS",
    "announce": [
      "udp://exodus.desync.com:6969",
      "udp://open.demonii.com:1337",
      "udp://tracker.coppersurfer.tk:6969",
      "udp://tracker.openbittorrent.com:80"
    ],
    "urlList": []
  },
  "previous": 136,
  "peers": 4,
  "last_updated": "2016-12-25T14:52:09.157Z"
}